<?xml version="1.0" encoding="UTF-8"?>
<!-- Generator: Adobe Illustrator 13.0.0, SVG Export Plug-In . SVG Version: 6.00 Build 14948)  -->
<!DOCTYPE svg PUBLIC "-//W3C//DTD SVG 1.0//EN" "http://www.w3.org/TR/2001/REC-SVG-20010904/DTD/svg10.dtd">
<svg xmlns:rdf="http://www.w3.org/1999/02/22-rdf-syntax-ns#"
     xmlns="http://www.w3.org/2000/svg"
     version="1.1"
     xmlns:cc="http://creativecommons.org/ns#"
     xmlns:xlink="http://www.w3.org/1999/xlink"
     viewBox="0 0 1000 1000"
     xmlns:dc="http://purl.org/dc/elements/1.1/"
     onload="init(evt)">
<defs>
<style type="text/css"><![CDATA[
    line {
        stroke-width: 0.25;
	stroke:black;
    }     
    ]]></style>


<g id="tile1">
<g><line  x1="100" y1="400" x2="0" y2="0"/>
</g><g><line  x1="100" y1="400" x2="0" y2="100"/>
</g><g><line  x1="100" y1="400" x2="0" y2="200"/>
</g><g><line  x1="100" y1="400" x2="0" y2="300"/>
</g><g><line  x1="100" y1="400" x2="0" y2="400"/>
</g><g><line  x1="100" y1="400" x2="0" y2="500"/>
</g><g><line  x1="100" y1="400" x2="0" y2="600"/>
</g><g><line  x1="100" y1="400" x2="0" y2="700"/>
</g><g><line  x1="100" y1="400" x2="0" y2="800"/>
</g><g><line  x1="100" y1="400" x2="0" y2="900"/>
</g><g><line  x1="100" y1="400" x2="0" y2="1000"/>
</g><g><line  x1="100" y1="400" x2="0" y2="50"/>
</g><g><line  x1="100" y1="400" x2="0" y2="150"/>
</g><g><line  x1="100" y1="400" x2="0" y2="250"/>
</g><g><line  x1="100" y1="400" x2="0" y2="350"/>
</g><g><line  x1="100" y1="400" x2="0" y2="450"/>
</g><g><line  x1="100" y1="400" x2="0" y2="550"/>
</g><g><line  x1="100" y1="400" x2="0" y2="650"/>
</g><g><line  x1="100" y1="400" x2="0" y2="750"/>
</g><g><line  x1="100" y1="400" x2="0" y2="850"/>
</g><g><line  x1="100" y1="400" x2="0" y2="950"/>

</g><g><line  x1="100" y1="400" x2="100" y2="1000"/>
</g><g><line  x1="100" y1="400" x2="200" y2="1000"/>
</g><g><line  x1="100" y1="400" x2="300" y2="1000"/>
</g><g><line  x1="100" y1="400" x2="400" y2="1000"/>
</g><g><line  x1="100" y1="400" x2="500" y2="1000"/>
</g><g><line  x1="100" y1="400" x2="600" y2="1000"/>
</g><g><line  x1="100" y1="400" x2="700" y2="1000"/>
</g><g><line  x1="100" y1="400" x2="800" y2="1000"/>
</g><g><line  x1="100" y1="400" x2="900" y2="1000"/>
</g><g><line  x1="100" y1="400" x2="1000" y2="1000"/>
</g><g><line  x1="100" y1="400" x2="50" y2="1000"/>
</g><g><line  x1="100" y1="400" x2="150" y2="1000"/>
</g><g><line  x1="100" y1="400" x2="250" y2="1000"/>
</g><g><line  x1="100" y1="400" x2="350" y2="1000"/>
</g><g><line  x1="100" y1="400" x2="450" y2="1000"/>
</g><g><line  x1="100" y1="400" x2="550" y2="1000"/>
</g><g><line  x1="100" y1="400" x2="650" y2="1000"/>
</g><g><line  x1="100" y1="400" x2="750" y2="1000"/>
</g><g><line  x1="100" y1="400" x2="850" y2="1000"/>
</g><g><line  x1="100" y1="400" x2="950" y2="1000"/>


</g><g><line  x1="100" y1="400" x2="1000" y2="0"/>
</g><g><line  x1="100" y1="400" x2="1000" y2="100"/>
</g><g><line  x1="100" y1="400" x2="1000" y2="200"/>
</g><g><line  x1="100" y1="400" x2="1000" y2="300"/>
</g><g><line  x1="100" y1="400" x2="1000" y2="400"/>
</g><g><line  x1="100" y1="400" x2="1000" y2="500"/>
</g><g><line  x1="100" y1="400" x2="1000" y2="600"/>
</g><g><line  x1="100" y1="400" x2="1000" y2="700"/>
</g><g><line  x1="100" y1="400" x2="1000" y2="800"/>
</g><g><line  x1="100" y1="400" x2="1000" y2="900"/>
</g><g><line  x1="100" y1="400" x2="1000" y2="50"/>
</g><g><line  x1="100" y1="400" x2="1000" y2="150"/>
</g><g><line  x1="100" y1="400" x2="1000" y2="250"/>
</g><g><line  x1="100" y1="400" x2="1000" y2="350"/>
</g><g><line  x1="100" y1="400" x2="1000" y2="450"/>
</g><g><line  x1="100" y1="400" x2="1000" y2="550"/>
</g><g><line  x1="100" y1="400" x2="1000" y2="650"/>
</g><g><line  x1="100" y1="400" x2="1000" y2="750"/>
</g><g><line  x1="100" y1="400" x2="1000" y2="850"/>
</g><g><line  x1="100" y1="400" x2="1000" y2="950"/>

</g><g><line  x1="100" y1="400" x2="100" y2="0"/>
</g><g><line  x1="100" y1="400" x2="200" y2="0"/>
</g><g><line  x1="100" y1="400" x2="300" y2="0"/>
</g><g><line  x1="100" y1="400" x2="400" y2="0"/>
</g><g><line  x1="100" y1="400" x2="500" y2="0"/>
</g><g><line  x1="100" y1="400" x2="600" y2="0"/>
</g><g><line  x1="100" y1="400" x2="700" y2="0"/>
</g><g><line  x1="100" y1="400" x2="800" y2="0"/>
</g><g><line  x1="100" y1="400" x2="900" y2="0"/>
</g><g><line  x1="100" y1="400" x2="50" y2="0"/>
</g><g><line  x1="100" y1="400" x2="150" y2="0"/>
</g><g><line  x1="100" y1="400" x2="250" y2="0"/>
</g><g><line  x1="100" y1="400" x2="350" y2="0"/>
</g><g><line  x1="100" y1="400" x2="450" y2="0"/>
</g><g><line  x1="100" y1="400" x2="550" y2="0"/>
</g><g><line  x1="100" y1="400" x2="650" y2="0"/>
</g><g><line  x1="100" y1="400" x2="750" y2="0"/>
</g><g><line  x1="100" y1="400" x2="850" y2="0"/>
</g><g><line  x1="100" y1="400" x2="950" y2="0"/>
</g>
</g>

<g id="tile2">
<g><line  x1="200" y1="400" x2="0" y2="0"/>
</g><g><line  x1="200" y1="400" x2="0" y2="100"/>
</g><g><line  x1="200" y1="400" x2="0" y2="200"/>
</g><g><line  x1="200" y1="400" x2="0" y2="300"/>
</g><g><line  x1="200" y1="400" x2="0" y2="400"/>
</g><g><line  x1="200" y1="400" x2="0" y2="500"/>
</g><g><line  x1="200" y1="400" x2="0" y2="600"/>
</g><g><line  x1="200" y1="400" x2="0" y2="700"/>
</g><g><line  x1="200" y1="400" x2="0" y2="800"/>
</g><g><line  x1="200" y1="400" x2="0" y2="900"/>
</g><g><line  x1="200" y1="400" x2="0" y2="1000"/>
</g><g><line  x1="200" y1="400" x2="0" y2="50"/>
</g><g><line  x1="200" y1="400" x2="0" y2="150"/>
</g><g><line  x1="200" y1="400" x2="0" y2="250"/>
</g><g><line  x1="200" y1="400" x2="0" y2="350"/>
</g><g><line  x1="200" y1="400" x2="0" y2="450"/>
</g><g><line  x1="200" y1="400" x2="0" y2="550"/>
</g><g><line  x1="200" y1="400" x2="0" y2="650"/>
</g><g><line  x1="200" y1="400" x2="0" y2="750"/>
</g><g><line  x1="200" y1="400" x2="0" y2="850"/>
</g><g><line  x1="200" y1="400" x2="0" y2="950"/>

</g><g><line  x1="200" y1="400" x2="100" y2="1000"/>
</g><g><line  x1="200" y1="400" x2="200" y2="1000"/>
</g><g><line  x1="200" y1="400" x2="300" y2="1000"/>
</g><g><line  x1="200" y1="400" x2="400" y2="1000"/>
</g><g><line  x1="200" y1="400" x2="500" y2="1000"/>
</g><g><line  x1="200" y1="400" x2="600" y2="1000"/>
</g><g><line  x1="200" y1="400" x2="700" y2="1000"/>
</g><g><line  x1="200" y1="400" x2="800" y2="1000"/>
</g><g><line  x1="200" y1="400" x2="900" y2="1000"/>
</g><g><line  x1="200" y1="400" x2="1000" y2="1000"/>
</g><g><line  x1="200" y1="400" x2="50" y2="1000"/>
</g><g><line  x1="200" y1="400" x2="150" y2="1000"/>
</g><g><line  x1="200" y1="400" x2="250" y2="1000"/>
</g><g><line  x1="200" y1="400" x2="350" y2="1000"/>
</g><g><line  x1="200" y1="400" x2="450" y2="1000"/>
</g><g><line  x1="200" y1="400" x2="550" y2="1000"/>
</g><g><line  x1="200" y1="400" x2="650" y2="1000"/>
</g><g><line  x1="200" y1="400" x2="750" y2="1000"/>
</g><g><line  x1="200" y1="400" x2="850" y2="1000"/>
</g><g><line  x1="200" y1="400" x2="950" y2="1000"/>


</g><g><line  x1="200" y1="400" x2="1000" y2="0"/>
</g><g><line  x1="200" y1="400" x2="1000" y2="100"/>
</g><g><line  x1="200" y1="400" x2="1000" y2="200"/>
</g><g><line  x1="200" y1="400" x2="1000" y2="300"/>
</g><g><line  x1="200" y1="400" x2="1000" y2="400"/>
</g><g><line  x1="200" y1="400" x2="1000" y2="500"/>
</g><g><line  x1="200" y1="400" x2="1000" y2="600"/>
</g><g><line  x1="200" y1="400" x2="1000" y2="700"/>
</g><g><line  x1="200" y1="400" x2="1000" y2="800"/>
</g><g><line  x1="200" y1="400" x2="1000" y2="900"/>
</g><g><line  x1="200" y1="400" x2="1000" y2="50"/>
</g><g><line  x1="200" y1="400" x2="1000" y2="150"/>
</g><g><line  x1="200" y1="400" x2="1000" y2="250"/>
</g><g><line  x1="200" y1="400" x2="1000" y2="350"/>
</g><g><line  x1="200" y1="400" x2="1000" y2="450"/>
</g><g><line  x1="200" y1="400" x2="1000" y2="550"/>
</g><g><line  x1="200" y1="400" x2="1000" y2="650"/>
</g><g><line  x1="200" y1="400" x2="1000" y2="750"/>
</g><g><line  x1="200" y1="400" x2="1000" y2="850"/>
</g><g><line  x1="200" y1="400" x2="1000" y2="950"/>

</g><g><line  x1="200" y1="400" x2="100" y2="0"/>
</g><g><line  x1="200" y1="400" x2="200" y2="0"/>
</g><g><line  x1="200" y1="400" x2="300" y2="0"/>
</g><g><line  x1="200" y1="400" x2="400" y2="0"/>
</g><g><line  x1="200" y1="400" x2="500" y2="0"/>
</g><g><line  x1="200" y1="400" x2="600" y2="0"/>
</g><g><line  x1="200" y1="400" x2="700" y2="0"/>
</g><g><line  x1="200" y1="400" x2="800" y2="0"/>
</g><g><line  x1="200" y1="400" x2="900" y2="0"/>
</g><g><line  x1="200" y1="400" x2="50" y2="0"/>
</g><g><line  x1="200" y1="400" x2="150" y2="0"/>
</g><g><line  x1="200" y1="400" x2="250" y2="0"/>
</g><g><line  x1="200" y1="400" x2="350" y2="0"/>
</g><g><line  x1="200" y1="400" x2="450" y2="0"/>
</g><g><line  x1="200" y1="400" x2="550" y2="0"/>
</g><g><line  x1="200" y1="400" x2="650" y2="0"/>
</g><g><line  x1="200" y1="400" x2="750" y2="0"/>
</g><g><line  x1="200" y1="400" x2="850" y2="0"/>
</g><g><line  x1="200" y1="400" x2="950" y2="0"/>
</g>
</g>
<g id="tile3">
<g><line  x1="300" y1="400" x2="0" y2="0"/>
</g><g><line  x1="300" y1="400" x2="0" y2="100"/>
</g><g><line  x1="300" y1="400" x2="0" y2="200"/>
</g><g><line  x1="300" y1="400" x2="0" y2="300"/>
</g><g><line  x1="300" y1="400" x2="0" y2="400"/>
</g><g><line  x1="300" y1="400" x2="0" y2="500"/>
</g><g><line  x1="300" y1="400" x2="0" y2="600"/>
</g><g><line  x1="300" y1="400" x2="0" y2="700"/>
</g><g><line  x1="300" y1="400" x2="0" y2="800"/>
</g><g><line  x1="300" y1="400" x2="0" y2="900"/>
</g><g><line  x1="300" y1="400" x2="0" y2="1000"/>
</g><g><line  x1="300" y1="400" x2="0" y2="50"/>
</g><g><line  x1="300" y1="400" x2="0" y2="150"/>
</g><g><line  x1="300" y1="400" x2="0" y2="250"/>
</g><g><line  x1="300" y1="400" x2="0" y2="350"/>
</g><g><line  x1="300" y1="400" x2="0" y2="450"/>
</g><g><line  x1="300" y1="400" x2="0" y2="550"/>
</g><g><line  x1="300" y1="400" x2="0" y2="650"/>
</g><g><line  x1="300" y1="400" x2="0" y2="750"/>
</g><g><line  x1="300" y1="400" x2="0" y2="850"/>
</g><g><line  x1="300" y1="400" x2="0" y2="950"/>

</g><g><line  x1="300" y1="400" x2="100" y2="1000"/>
</g><g><line  x1="300" y1="400" x2="200" y2="1000"/>
</g><g><line  x1="300" y1="400" x2="300" y2="1000"/>
</g><g><line  x1="300" y1="400" x2="400" y2="1000"/>
</g><g><line  x1="300" y1="400" x2="500" y2="1000"/>
</g><g><line  x1="300" y1="400" x2="600" y2="1000"/>
</g><g><line  x1="300" y1="400" x2="700" y2="1000"/>
</g><g><line  x1="300" y1="400" x2="800" y2="1000"/>
</g><g><line  x1="300" y1="400" x2="900" y2="1000"/>
</g><g><line  x1="300" y1="400" x2="1000" y2="1000"/>
</g><g><line  x1="300" y1="400" x2="50" y2="1000"/>
</g><g><line  x1="300" y1="400" x2="150" y2="1000"/>
</g><g><line  x1="300" y1="400" x2="250" y2="1000"/>
</g><g><line  x1="300" y1="400" x2="350" y2="1000"/>
</g><g><line  x1="300" y1="400" x2="450" y2="1000"/>
</g><g><line  x1="300" y1="400" x2="550" y2="1000"/>
</g><g><line  x1="300" y1="400" x2="650" y2="1000"/>
</g><g><line  x1="300" y1="400" x2="750" y2="1000"/>
</g><g><line  x1="300" y1="400" x2="850" y2="1000"/>
</g><g><line  x1="300" y1="400" x2="950" y2="1000"/>


</g><g><line  x1="300" y1="400" x2="1000" y2="0"/>
</g><g><line  x1="300" y1="400" x2="1000" y2="100"/>
</g><g><line  x1="300" y1="400" x2="1000" y2="200"/>
</g><g><line  x1="300" y1="400" x2="1000" y2="300"/>
</g><g><line  x1="300" y1="400" x2="1000" y2="400"/>
</g><g><line  x1="300" y1="400" x2="1000" y2="500"/>
</g><g><line  x1="300" y1="400" x2="1000" y2="600"/>
</g><g><line  x1="300" y1="400" x2="1000" y2="700"/>
</g><g><line  x1="300" y1="400" x2="1000" y2="800"/>
</g><g><line  x1="300" y1="400" x2="1000" y2="900"/>
</g><g><line  x1="300" y1="400" x2="1000" y2="50"/>
</g><g><line  x1="300" y1="400" x2="1000" y2="150"/>
</g><g><line  x1="300" y1="400" x2="1000" y2="250"/>
</g><g><line  x1="300" y1="400" x2="1000" y2="350"/>
</g><g><line  x1="300" y1="400" x2="1000" y2="450"/>
</g><g><line  x1="300" y1="400" x2="1000" y2="550"/>
</g><g><line  x1="300" y1="400" x2="1000" y2="650"/>
</g><g><line  x1="300" y1="400" x2="1000" y2="750"/>
</g><g><line  x1="300" y1="400" x2="1000" y2="850"/>
</g><g><line  x1="300" y1="400" x2="1000" y2="950"/>

</g><g><line  x1="300" y1="400" x2="100" y2="0"/>
</g><g><line  x1="300" y1="400" x2="200" y2="0"/>
</g><g><line  x1="300" y1="400" x2="300" y2="0"/>
</g><g><line  x1="300" y1="400" x2="400" y2="0"/>
</g><g><line  x1="300" y1="400" x2="500" y2="0"/>
</g><g><line  x1="300" y1="400" x2="600" y2="0"/>
</g><g><line  x1="300" y1="400" x2="700" y2="0"/>
</g><g><line  x1="300" y1="400" x2="800" y2="0"/>
</g><g><line  x1="300" y1="400" x2="900" y2="0"/>
</g><g><line  x1="300" y1="400" x2="50" y2="0"/>
</g><g><line  x1="300" y1="400" x2="150" y2="0"/>
</g><g><line  x1="300" y1="400" x2="250" y2="0"/>
</g><g><line  x1="300" y1="400" x2="350" y2="0"/>
</g><g><line  x1="300" y1="400" x2="450" y2="0"/>
</g><g><line  x1="300" y1="400" x2="550" y2="0"/>
</g><g><line  x1="300" y1="400" x2="650" y2="0"/>
</g><g><line  x1="300" y1="400" x2="750" y2="0"/>
</g><g><line  x1="300" y1="400" x2="850" y2="0"/>
</g><g><line  x1="300" y1="400" x2="950" y2="0"/>
</g>


</g>
<g id="tile4">
<g><line  x1="400" y1="400" x2="0" y2="0"/>
</g><g><line  x1="400" y1="400" x2="0" y2="100"/>
</g><g><line  x1="400" y1="400" x2="0" y2="200"/>
</g><g><line  x1="400" y1="400" x2="0" y2="300"/>
</g><g><line  x1="400" y1="400" x2="0" y2="400"/>
</g><g><line  x1="400" y1="400" x2="0" y2="500"/>
</g><g><line  x1="400" y1="400" x2="0" y2="600"/>
</g><g><line  x1="400" y1="400" x2="0" y2="700"/>
</g><g><line  x1="400" y1="400" x2="0" y2="800"/>
</g><g><line  x1="400" y1="400" x2="0" y2="900"/>
</g><g><line  x1="400" y1="400" x2="0" y2="1000"/>
</g><g><line  x1="400" y1="400" x2="0" y2="50"/>
</g><g><line  x1="400" y1="400" x2="0" y2="150"/>
</g><g><line  x1="400" y1="400" x2="0" y2="250"/>
</g><g><line  x1="400" y1="400" x2="0" y2="350"/>
</g><g><line  x1="400" y1="400" x2="0" y2="450"/>
</g><g><line  x1="400" y1="400" x2="0" y2="550"/>
</g><g><line  x1="400" y1="400" x2="0" y2="650"/>
</g><g><line  x1="400" y1="400" x2="0" y2="750"/>
</g><g><line  x1="400" y1="400" x2="0" y2="850"/>
</g><g><line  x1="400" y1="400" x2="0" y2="950"/>

</g><g><line  x1="400" y1="400" x2="100" y2="1000"/>
</g><g><line  x1="400" y1="400" x2="200" y2="1000"/>
</g><g><line  x1="400" y1="400" x2="300" y2="1000"/>
</g><g><line  x1="400" y1="400" x2="400" y2="1000"/>
</g><g><line  x1="400" y1="400" x2="500" y2="1000"/>
</g><g><line  x1="400" y1="400" x2="600" y2="1000"/>
</g><g><line  x1="400" y1="400" x2="700" y2="1000"/>
</g><g><line  x1="400" y1="400" x2="800" y2="1000"/>
</g><g><line  x1="400" y1="400" x2="900" y2="1000"/>
</g><g><line  x1="400" y1="400" x2="1000" y2="1000"/>
</g><g><line  x1="400" y1="400" x2="50" y2="1000"/>
</g><g><line  x1="400" y1="400" x2="150" y2="1000"/>
</g><g><line  x1="400" y1="400" x2="250" y2="1000"/>
</g><g><line  x1="400" y1="400" x2="350" y2="1000"/>
</g><g><line  x1="400" y1="400" x2="450" y2="1000"/>
</g><g><line  x1="400" y1="400" x2="550" y2="1000"/>
</g><g><line  x1="400" y1="400" x2="650" y2="1000"/>
</g><g><line  x1="400" y1="400" x2="750" y2="1000"/>
</g><g><line  x1="400" y1="400" x2="850" y2="1000"/>
</g><g><line  x1="400" y1="400" x2="950" y2="1000"/>


</g><g><line  x1="400" y1="400" x2="1000" y2="0"/>
</g><g><line  x1="400" y1="400" x2="1000" y2="100"/>
</g><g><line  x1="400" y1="400" x2="1000" y2="200"/>
</g><g><line  x1="400" y1="400" x2="1000" y2="300"/>
</g><g><line  x1="400" y1="400" x2="1000" y2="400"/>
</g><g><line  x1="400" y1="400" x2="1000" y2="500"/>
</g><g><line  x1="400" y1="400" x2="1000" y2="600"/>
</g><g><line  x1="400" y1="400" x2="1000" y2="700"/>
</g><g><line  x1="400" y1="400" x2="1000" y2="800"/>
</g><g><line  x1="400" y1="400" x2="1000" y2="900"/>
</g><g><line  x1="400" y1="400" x2="1000" y2="50"/>
</g><g><line  x1="400" y1="400" x2="1000" y2="150"/>
</g><g><line  x1="400" y1="400" x2="1000" y2="250"/>
</g><g><line  x1="400" y1="400" x2="1000" y2="350"/>
</g><g><line  x1="400" y1="400" x2="1000" y2="450"/>
</g><g><line  x1="400" y1="400" x2="1000" y2="550"/>
</g><g><line  x1="400" y1="400" x2="1000" y2="650"/>
</g><g><line  x1="400" y1="400" x2="1000" y2="750"/>
</g><g><line  x1="400" y1="400" x2="1000" y2="850"/>
</g><g><line  x1="400" y1="400" x2="1000" y2="950"/>

</g><g><line  x1="400" y1="400" x2="100" y2="0"/>
</g><g><line  x1="400" y1="400" x2="200" y2="0"/>
</g><g><line  x1="400" y1="400" x2="300" y2="0"/>
</g><g><line  x1="400" y1="400" x2="400" y2="0"/>
</g><g><line  x1="400" y1="400" x2="500" y2="0"/>
</g><g><line  x1="400" y1="400" x2="600" y2="0"/>
</g><g><line  x1="400" y1="400" x2="700" y2="0"/>
</g><g><line  x1="400" y1="400" x2="800" y2="0"/>
</g><g><line  x1="400" y1="400" x2="900" y2="0"/>
</g><g><line  x1="400" y1="400" x2="50" y2="0"/>
</g><g><line  x1="400" y1="400" x2="150" y2="0"/>
</g><g><line  x1="400" y1="400" x2="250" y2="0"/>
</g><g><line  x1="400" y1="400" x2="350" y2="0"/>
</g><g><line  x1="400" y1="400" x2="450" y2="0"/>
</g><g><line  x1="400" y1="400" x2="550" y2="0"/>
</g><g><line  x1="400" y1="400" x2="650" y2="0"/>
</g><g><line  x1="400" y1="400" x2="750" y2="0"/>
</g><g><line  x1="400" y1="400" x2="850" y2="0"/>
</g><g><line  x1="400" y1="400" x2="950" y2="0"/>
</g>

</g>

<g id="tiles">
<g>
<use xlink:href="#tile1"/>
<use xlink:href="#tile2"/>
<use xlink:href="#tile3"/>
<use xlink:href="#tile4"/>
</g>
<g transform="translate(1000,0)  scale(-1, 1)">
<use xlink:href="#tile1"/>
<use xlink:href="#tile2"/>
<use xlink:href="#tile3"/>
<use xlink:href="#tile4"/>
</g>
</g>


</defs>

<use xlink:href="#tiles" transform="rotate(0, 500, 500)"/>
<use xlink:href="#tiles" transform="rotate(90, 500, 500)"/>
<use xlink:href="#tiles" transform="rotate(180, 500, 500)"/>
<use xlink:href="#tiles" transform="rotate(270, 500, 500)"/>






</svg>
