<?xml version="1.0" encoding="UTF-8"?>
<!-- Generator: Adobe Illustrator 13.0.0, SVG Export Plug-In . SVG Version: 6.00 Build 14948)  -->
<!DOCTYPE svg PUBLIC "-//W3C//DTD SVG 1.0//EN" "http://www.w3.org/TR/2001/REC-SVG-20010904/DTD/svg10.dtd">
<svg xmlns:rdf="http://www.w3.org/1999/02/22-rdf-syntax-ns#"
     xmlns="http://www.w3.org/2000/svg"
     version="1.1"
     xmlns:cc="http://creativecommons.org/ns#"
     xmlns:xlink="http://www.w3.org/1999/xlink"
     viewBox="0 0 800 800"
     xmlns:dc="http://purl.org/dc/elements/1.1/"
     onload="init(evt)">

<script type="text/ecmascript"><![CDATA[
  var svgNS = "http://www.w3.org/2000/svg";

  function init(evt)
  {
    if ( window.svgDocument == null )
    {
        svgDocument = evt.target.ownerDocument;
    }
    	addRotateTransform('tiles');

  }

  function addRotateTransform(target_id)
  {
    var element_to_rotate = svgDocument.getElementById(target_id);
    var my_transform = svgDocument.createElementNS(svgNS, "animateTransform");

    var bb = element_to_rotate.getBBox();
    var cx = bb.x + bb.width/2;
    var cy = bb.y + bb.height/2;

    my_transform.setAttributeNS(null, "attributeName", "transform");
    my_transform.setAttributeNS(null, "attributeType", "XML");
    my_transform.setAttributeNS(null, "type", "rotate");
    my_transform.setAttributeNS(null, "dur", "20s");
    my_transform.setAttributeNS(null, "repeatCount", "indefinite");
    my_transform.setAttributeNS(null, "from", "0 "+cx+" "+cy);
    my_transform.setAttributeNS(null, "to", "360 "+cx+" "+cy);

    element_to_rotate.appendChild(my_transform);
    my_transform.beginElement();
  }
]]></script>
<defs>

<style type="text/css"><![CDATA[
    line {
        stroke-width: 0.5;
    }     
    ]]></style>

<g id="tiles">

<animateColor id="1a0" attributeName="stroke"
from="#0071BC" to="#0071BC" begin="0s"
dur="20s"/>
<animateColor id="1a1" attributeName="stroke"
from="#0071BC" to="#5C2D91" begin="1a0.end"
dur="20s"/>
<animateColor id="1a2" attributeName="stroke"
from="#5C2D91" to="#0071BC" begin="1a1.end"
dur="20s"/>
<animateColor id="1a3" attributeName="stroke"
from="#0071BC" to="#5C2D91" begin="1a2.end"
dur="20s"/>
<animateColor id="1a4" attributeName="stroke"
from="#5C2D91" to="#0071BC" begin="1a3.end"
dur="20s"/>
<animateColor id="1a5" attributeName="stroke"
from="#0071BC" to="#5C2D91" begin="1a4.end"
dur="20"/>
<animateColor id="1a6" attributeName="stroke"
from="#5C2D91" to="#0071BC" begin="1a5.end"
dur="20"/>
<animateColor id="1a7" attributeName="stroke"
from="#0071BC" to="#5C2D91" begin="1a6.end"
dur="20"/>
<animateColor id="1a8" attributeName="stroke"
from="#5C2D91" to="#0071BC" begin="1a7.end"
dur="20"/>

	<line   x1="19.942" y1="276.335" x2="365.613" y2="399.801"/>
	<line   x1="365.613" y1="399.8" x2="276.41" y2="779.519"/>
	<line   x1="19.942" y1="276.335" x2="303.318" y2="399.8"/>
	<line   x1="276.41" y1="779.519" x2="303.317" y2="399.8"/>
	<line   x1="276.41" y1="779.519" x2="246.779" y2="399.8"/>
	<line   x1="19.942" y1="276.335" x2="195.345" y2="399.8"/>	
	<line   x1="246.78" y1="399.8" x2="19.942" y2="276.335"/>
	<line   x1="195.347" y1="399.8" x2="276.41" y2="779.519"/>
	<line   x1="276.41" y1="779.519" x2="148.703" y2="399.8"/>
	<line   x1="148.703" y1="399.8" x2="19.941" y2="276.335"/>
	<line   x1="276.41" y1="779.519" x2="106.233" y2="399.8"/>
	<line   x1="19.942" y1="276.336" x2="67.567" y2="399.8"/>
	<line   x1="67.566" y1="399.8" x2="276.41" y2="779.52"/>
	<line   x1="19.942" y1="276.335" x2="106.234" y2="399.8"/>


	<line stroke="#ED1C24"  x1="246.779" y1="399.8" x2="165.103" y2="722.839"/>
	<line stroke="#ED1C24"  x1="76.68" y1="165.03" x2="246.779" y2="399.8"/>
	<line stroke="#ED1C24"  x1="76.68" y1="165.031" x2="195.346" y2="399.8"/>
	<line stroke="#ED1C24"  x1="165.103" y1="722.839" x2="195.347" y2="399.8"/>
	<line stroke="#ED1C24"  x1="165.103" y1="722.839" x2="106.291" y2="399.66"/>
	<line stroke="#ED1C24"  x1="76.68" y1="165.03" x2="67.567" y2="399.8"/>
	<line stroke="#ED1C24"  x1="165.102" y1="722.839" x2="67.567" y2="399.8"/>
	<line stroke="#ED1C24"  x1="365.614" y1="399.8" x2="76.68" y2="165.03"/>
	<line stroke="#ED1C24"  x1="76.681" y1="165.03" x2="303.318" y2="399.8"/>
	<line stroke="#ED1C24"  x1="165.103" y1="722.839" x2="148.703" y2="399.8"/>
	<line stroke="#ED1C24"  x1="303.317" y1="399.8" x2="165.104" y2="722.839"/>
	<line stroke="#ED1C24"  x1="76.68" y1="165.03" x2="148.703" y2="399.8"/>
	<line stroke="#ED1C24"  x1="106.234" y1="399.8" x2="76.68" y2="165.03"/>
	<line stroke="#ED1C24"  x1="165.103" y1="722.839" x2="365.613" y2="399.801"/>

	<line stroke="#BD1A8D"  x1="246.778" y1="399.8" x2="20.026" y2="523.171"/>
	<line stroke="#BD1A8D"  x1="276.361" y1="19.921" x2="195.347" y2="399.8"/>
	<line stroke="#BD1A8D"  x1="20.025" y1="523.171" x2="195.347" y2="399.8"/>
	<line stroke="#BD1A8D"  x1="365.613" y1="399.799" x2="276.362" y2="19.92"/>
	<line stroke="#BD1A8D"  x1="20.026" y1="523.171" x2="365.613" y2="399.8"/>
	<line stroke="#BD1A8D"  x1="276.361" y1="19.921" x2="148.703" y2="399.8"/>
	<line stroke="#BD1A8D"  x1="276.361" y1="19.92" x2="67.567" y2="399.8"/>
	<line stroke="#BD1A8D"  x1="20.026" y1="523.171" x2="67.567" y2="399.8"/>
	<line stroke="#BD1A8D"  x1="276.362" y1="19.92" x2="303.318" y2="399.8"/>
	<line stroke="#BD1A8D"  x1="276.362" y1="19.92" x2="246.78" y2="399.8"/>
	<line stroke="#BD1A8D"  x1="20.026" y1="523.171" x2="148.704" y2="399.8"/>
	<line stroke="#BD1A8D"  x1="276.362" y1="19.92" x2="106.234" y2="399.8"/>
	<line stroke="#BD1A8D"  x1="20.025" y1="523.171" x2="106.234" y2="399.8"/>
	<line stroke="#BD1A8D"  x1="20.026" y1="523.171" x2="303.317" y2="399.8"/>

	<line stroke="#006F3B"  x1="76.692" y1="634.468" x2="246.78" y2="399.8"/>
	<line stroke="#006F3B"  x1="246.78" y1="399.8" x2="164.97" y2="76.635"/>
	<line stroke="#006F3B"  x1="195.347" y1="399.8" x2="164.97" y2="76.636"/>
	<line stroke="#006F3B"  x1="195.347" y1="399.8" x2="76.692" y2="634.467"/>
	<line stroke="#006F3B"  x1="164.971" y1="76.636" x2="67.566" y2="399.8"/>
	<line stroke="#006F3B"  x1="148.704" y1="399.8" x2="164.97" y2="76.635"/>
	<line stroke="#006F3B"  x1="76.692" y1="634.468" x2="67.567" y2="399.8"/>
	<line stroke="#006F3B"  x1="76.692" y1="634.467" x2="148.704" y2="399.8"/>
	<line stroke="#006F3B"  x1="76.692" y1="634.468" x2="106.234" y2="399.8"/>
	<line stroke="#006F3B"  x1="164.97" y1="76.636" x2="106.234" y2="399.8"/>
	<line stroke="#006F3B"  x1="164.969" y1="76.637" x2="365.613" y2="399.8"/>
	<line stroke="#006F3B"  x1="365.613" y1="399.8" x2="76.692" y2="634.468"/>
	<line stroke="#006F3B"  x1="76.693" y1="634.468" x2="303.318" y2="399.8"/>
	<line stroke="#006F3B"  x1="303.318" y1="399.8" x2="164.969" y2="76.636"/>

</g>
<g id="oneset">
<use xlink:href="#tiles" transform="rotate(0, 400, 400)" />
<use xlink:href="#tiles" transform="rotate(40, 400, 400)" />
<use xlink:href="#tiles" transform="rotate(80, 400, 400)" />
<use xlink:href="#tiles" transform="rotate(120, 400, 400)" />
<use xlink:href="#tiles" transform="rotate(160, 400, 400)" />
<use xlink:href="#tiles" transform="rotate(200, 400, 400)" />
<use xlink:href="#tiles" transform="rotate(240, 400, 400)" />
<use xlink:href="#tiles" transform="rotate(280, 400, 400)" />
<use xlink:href="#tiles" transform="rotate(320, 400, 400)" />
</g>

</defs>

<use xlink:href="#oneset" transform="rotate(0, 400, 400)" />
<g>
<use xlink:href="#oneset" transform="rotate(20, 400, 400)" />
</g>

</svg>
